<svg id="visual" viewBox="0 0 960 540" width="960" height="540" xmlns="http://www.w3.org/2000/svg" xmlns:xlink="http://www.w3.org/1999/xlink" version="1.1"><rect width="960" height="540" fill="#1e3a8a"></rect><g><g transform="translate(627 376)"><path d="M0 -101.2L87.7 -50.6L87.7 50.6L0 101.2L-87.7 50.6L-87.7 -50.6Z" fill="#2563eb"></path></g><g transform="translate(148 204)"><path d="M0 -55L47.6 -27.5L47.6 27.5L0 55L-47.6 27.5L-47.6 -27.5Z" fill="#2563eb"></path></g><g transform="translate(783 148)"><path d="M0 -96L83.1 -48L83.1 48L0 96L-83.1 48L-83.1 -48Z" fill="#2563eb"></path></g><g transform="translate(399 141)"><path d="M0 -58L50.2 -29L50.2 29L0 58L-50.2 29L-50.2 -29Z" fill="#2563eb"></path></g><g transform="translate(249 433)"><path d="M0 -63L54.6 -31.5L54.6 31.5L0 63L-54.6 31.5L-54.6 -31.5Z" fill="#2563eb"></path></g><g transform="translate(838 407)"><path d="M0 -63L54.6 -31.5L54.6 31.5L0 63L-54.6 31.5L-54.6 -31.5Z" fill="#2563eb"></path></g></g></svg>