<svg id="visual" viewBox="0 0 1920 600" width="1920" height="600" xmlns="http://www.w3.org/2000/svg" xmlns:xlink="http://www.w3.org/1999/xlink" version="1.1"><rect x="0" y="0" width="1920" height="600" fill="#f3f4f6"></rect><path d="M0 494L40 487C80 480 160 466 240 457.3C320 448.7 400 445.3 480 449.2C560 453 640 464 720 475.5C800 487 880 499 960 495.5C1040 492 1120 473 1200 465C1280 457 1360 460 1440 467.2C1520 474.3 1600 485.7 1680 492.7C1760 499.7 1840 502.3 1880 503.7L1920 505L1920 0L1880 0C1840 0 1760 0 1680 0C1600 0 1520 0 1440 0C1360 0 1280 0 1200 0C1120 0 1040 0 960 0C880 0 800 0 720 0C640 0 560 0 480 0C400 0 320 0 240 0C160 0 80 0 40 0L0 0Z" fill="#2563eb"></path><path d="M0 325L40 334C80 343 160 361 240 363.3C320 365.7 400 352.3 480 351.5C560 350.7 640 362.3 720 373.3C800 384.3 880 394.7 960 385.3C1040 376 1120 347 1200 333.3C1280 319.7 1360 321.3 1440 332.7C1520 344 1600 365 1680 373.5C1760 382 1840 378 1880 376L1920 374L1920 0L1880 0C1840 0 1760 0 1680 0C1600 0 1520 0 1440 0C1360 0 1280 0 1200 0C1120 0 1040 0 960 0C880 0 800 0 720 0C640 0 560 0 480 0C400 0 320 0 240 0C160 0 80 0 40 0L0 0Z" fill="#2455c9"></path><path d="M0 257L40 255.2C80 253.3 160 249.7 240 240.7C320 231.7 400 217.3 480 209.8C560 202.3 640 201.7 720 213C800 224.3 880 247.7 960 251.3C1040 255 1120 239 1200 230.5C1280 222 1360 221 1440 218.7C1520 216.3 1600 212.7 1680 221.3C1760 230 1840 251 1880 261.5L1920 272L1920 0L1880 0C1840 0 1760 0 1680 0C1600 0 1520 0 1440 0C1360 0 1280 0 1200 0C1120 0 1040 0 960 0C880 0 800 0 720 0C640 0 560 0 480 0C400 0 320 0 240 0C160 0 80 0 40 0L0 0Z" fill="#2247a9"></path><path d="M0 107L40 115.3C80 123.7 160 140.3 240 149.5C320 158.7 400 160.3 480 152.2C560 144 640 126 720 118.5C800 111 880 114 960 118.3C1040 122.7 1120 128.3 1200 121C1280 113.7 1360 93.3 1440 83.7C1520 74 1600 75 1680 83.2C1760 91.3 1840 106.7 1880 114.3L1920 122L1920 0L1880 0C1840 0 1760 0 1680 0C1600 0 1520 0 1440 0C1360 0 1280 0 1200 0C1120 0 1040 0 960 0C880 0 800 0 720 0C640 0 560 0 480 0C400 0 320 0 240 0C160 0 80 0 40 0L0 0Z" fill="#1e3a8a"></path></svg>